<svg width="17" height="16" viewBox="0 0 17 16" fill="none" xmlns="http://www.w3.org/2000/svg">
<path opacity="0.5" d="M9.54406 13.28C8.5974 14.6 7.27073 15.26 5.56406 15.26C3.8574 15.26 2.53073 14.6 1.58406 13.28C0.637396 11.96 0.164063 10.2 0.164063 8C0.164063 5.8 0.637396 4.04 1.58406 2.72C2.53073 1.4 3.8574 0.739999 5.56406 0.739999C7.27073 0.739999 8.5974 1.4 9.54406 2.72C10.4907 4.04 10.9641 5.8 10.9641 8C10.9641 10.2 10.4907 11.96 9.54406 13.28ZM2.94406 12.02C3.5574 12.9667 4.43073 13.44 5.56406 13.44C6.6974 13.44 7.57073 12.9667 8.18406 12.02C8.81073 11.0733 9.12406 9.73333 9.12406 8C9.12406 6.26667 8.81073 4.92667 8.18406 3.98C7.57073 3.02 6.6974 2.54 5.56406 2.54C4.43073 2.54 3.5574 3.01333 2.94406 3.96C2.33073 4.90667 2.02406 6.25333 2.02406 8C2.02406 9.73333 2.33073 11.0733 2.94406 12.02ZM14.8311 0.999999H16.4311V15H14.5911V3L11.6111 3.88L11.1511 2.28L14.8311 0.999999Z" fill="#989EB1"/>
</svg>
