<svg width="22" height="16" viewBox="0 0 22 16" fill="none" xmlns="http://www.w3.org/2000/svg">
<path opacity="0.5" d="M9.98938 13.28C9.04271 14.6 7.71604 15.26 6.00938 15.26C4.30271 15.26 2.97604 14.6 2.02938 13.28C1.08271 11.96 0.609375 10.2 0.609375 8C0.609375 5.8 1.08271 4.04 2.02938 2.72C2.97604 1.4 4.30271 0.739999 6.00938 0.739999C7.71604 0.739999 9.04271 1.4 9.98938 2.72C10.936 4.04 11.4094 5.8 11.4094 8C11.4094 10.2 10.936 11.96 9.98938 13.28ZM3.38938 12.02C4.00271 12.9667 4.87604 13.44 6.00938 13.44C7.14271 13.44 8.01604 12.9667 8.62938 12.02C9.25604 11.0733 9.56938 9.73333 9.56938 8C9.56938 6.26667 9.25604 4.92667 8.62938 3.98C8.01604 3.02 7.14271 2.54 6.00938 2.54C4.87604 2.54 4.00271 3.01333 3.38938 3.96C2.77604 4.90667 2.46938 6.25333 2.46938 8C2.46938 9.73333 2.77604 11.0733 3.38938 12.02ZM12.1731 15V13.48L17.1131 8.44C18.4331 7.12 19.0931 5.98667 19.0931 5.04C19.0931 4.25333 18.8531 3.64 18.3731 3.2C17.8931 2.76 17.3065 2.54 16.6131 2.54C15.2931 2.54 14.3331 3.16667 13.7331 4.42L12.1731 3.5C12.6131 2.59333 13.2198 1.90667 13.9931 1.44C14.7798 0.973332 15.6465 0.739999 16.5931 0.739999C17.7665 0.739999 18.7865 1.12667 19.6531 1.9C20.5198 2.67333 20.9531 3.71333 20.9531 5.02C20.9531 6.43333 20.1198 7.97333 18.4531 9.64L14.8731 13.2H21.2131V15H12.1731Z" fill="#989EB1"/>
</svg>
