<svg width="22" height="16" viewBox="0 0 22 16" fill="none" xmlns="http://www.w3.org/2000/svg">
<path opacity="0.5" d="M10.048 13.28C9.1013 14.6 7.77464 15.26 6.06797 15.26C4.3613 15.26 3.03464 14.6 2.08797 13.28C1.1413 11.96 0.667969 10.2 0.667969 8C0.667969 5.8 1.1413 4.04 2.08797 2.72C3.03464 1.4 4.3613 0.739999 6.06797 0.739999C7.77464 0.739999 9.1013 1.4 10.048 2.72C10.9946 4.04 11.468 5.8 11.468 8C11.468 10.2 10.9946 11.96 10.048 13.28ZM3.44797 12.02C4.0613 12.9667 4.93464 13.44 6.06797 13.44C7.2013 13.44 8.07464 12.9667 8.68797 12.02C9.31464 11.0733 9.62797 9.73333 9.62797 8C9.62797 6.26667 9.31464 4.92667 8.68797 3.98C8.07464 3.02 7.2013 2.54 6.06797 2.54C4.93464 2.54 4.0613 3.01333 3.44797 3.96C2.83464 4.90667 2.52797 6.25333 2.52797 8C2.52797 9.73333 2.83464 11.0733 3.44797 12.02ZM17.6169 6.74C18.6835 6.94 19.5569 7.4 20.2369 8.12C20.9169 8.84 21.2569 9.75333 21.2569 10.86C21.2569 12.22 20.7902 13.2933 19.8569 14.08C18.9235 14.8667 17.7902 15.26 16.4569 15.26C15.3902 15.26 14.4435 15.02 13.6169 14.54C12.7902 14.0467 12.2035 13.34 11.8569 12.42L13.4169 11.5C13.8302 12.7933 14.8435 13.44 16.4569 13.44C17.3235 13.44 18.0302 13.2133 18.5769 12.76C19.1235 12.3067 19.3969 11.6733 19.3969 10.86C19.3969 10.0467 19.1235 9.41333 18.5769 8.96C18.0302 8.49333 17.3235 8.26 16.4569 8.26H15.9769L15.2369 7.12L18.4769 2.74H12.2569V0.999999H20.6569V2.64L17.6169 6.74Z" fill="#989EB1"/>
</svg>
