<svg width="125" height="150" viewBox="0 0 125 150" fill="none" xmlns="http://www.w3.org/2000/svg">
<path d="M86.9588 26.2463L2 76.6458L39.5124 147.466L118.199 102.036L86.9588 26.2463Z" fill="white"/>
<path d="M86.9588 26.2463L2 76.6458L39.5124 147.466L118.199 102.036L86.9588 26.2463Z" stroke="#989EB1" stroke-width="2"/>
<path d="M104.146 2L19.1875 46.3609L32.1454 123.22L110.832 77.79L104.146 2Z" fill="white"/>
<path d="M104.146 2L19.1875 46.3609L32.1454 123.22L110.832 77.79L104.146 2Z" stroke="#142251" stroke-width="2"/>
<path d="M96.0443 52.5825L96.0443 42.7316L38.8322 75.6057L38.8322 144.724C38.8322 147.239 40.2363 148.466 41.9683 147.466L120.655 102.037C122.387 101.037 123.791 98.1876 123.791 95.6732L123.791 36.0683L96.0443 52.5825Z" fill="white" stroke="#989EB1" stroke-width="2"/>
<path d="M33.1836 57.4932L76.6452 34.5046" stroke="#142251" stroke-width="2"/>
<path d="M33.4004 64.324L59.9193 50.3079" stroke="#142251" stroke-width="2"/>
</svg>
