<svg width="329" height="417" viewBox="0 0 329 417" fill="none" xmlns="http://www.w3.org/2000/svg">
<path d="M0 134.871L164.274 228.742L328.548 134.871L164.274 41L0 134.871Z" fill="#E4E7F1"/>
<path d="M0 322.613V134.871L164.274 228.742V416.483L0 322.613Z" fill="#E4E7F1"/>
<path d="M164.274 228.742V416.483L328.548 322.613V134.871L164.274 228.742Z" fill="#E4E7F1"/>
<path d="M164.274 228.742V416.483L328.548 322.613V134.871L164.274 228.742Z" fill="#E4E7F1"/>
<path d="M164.274 228.742V416.483L328.548 322.613V134.871L164.274 228.742Z" fill="#E4E7F1"/>
<path d="M164.274 228.742V416.483L328.548 322.613V134.871L164.274 228.742Z" fill="#E4E7F1"/>
<g filter="url(#filter0_i_0_1270)">
<path d="M0 135L164.5 229L329 135L164.5 41L0 135Z" fill="#142251"/>
<path d="M0 323V135L164.5 229V417L0 323Z" fill="#142251"/>
<path d="M164.5 229V417L329 323V135L164.5 229Z" fill="#142251"/>
<path d="M164.5 229V417L329 323V135L164.5 229Z" fill="#142251"/>
<path d="M164.5 229V417L329 323V135L164.5 229Z" fill="#142251"/>
<path d="M164.5 229V417L329 323V135L164.5 229Z" fill="#142251"/>
</g>
<g filter="url(#filter1_i_0_1270)">
<path d="M0 135L164.5 229L329 135L164.5 41L0 135Z" fill="#142251"/>
<path d="M0 135L164.5 229L329 135L164.5 41L0 135Z" fill="white" fill-opacity="0.22"/>
<path d="M0 323V135L164.5 229V417L0 323Z" fill="#142251"/>
<path d="M0 323V135L164.5 229V417L0 323Z" fill="white" fill-opacity="0.22"/>
</g>
<g filter="url(#filter2_i_0_1270)">
<path d="M0 135L164.5 229L329 135L164.5 41L0 135Z" fill="#142251"/>
</g>
<rect width="146" height="146" rx="44" transform="matrix(0.866025 0.5 -0.866025 0.5 165.439 60)" fill="#142251"/>
<g clip-path="url(#clip0_0_1270)">
<path d="M189.493 134.039C189.601 132.601 187.531 131.314 184.665 131.314L156.606 131.314C155.88 131.314 155.418 131.581 155.418 132C155.418 132.419 155.88 132.686 156.606 132.686L179.815 132.686C181.168 132.686 182.265 133.319 182.265 134.1C182.265 134.881 181.168 135.514 179.815 135.514L156.606 135.514C153.175 135.514 150.519 133.981 150.519 132C150.519 130.019 153.175 128.486 156.606 128.486L184.665 128.486C190.095 128.486 194.596 130.982 194.389 134.13C194.361 137.251 190.05 139.832 184.616 139.714L151.756 139.714C144.168 139.714 138.222 136.281 138.222 131.9C138.222 127.519 144.168 124.086 151.756 124.086L179.815 124.086C181.168 124.086 182.265 124.719 182.265 125.5C182.265 126.281 181.168 126.914 179.815 126.914L151.756 126.914C146.874 126.914 143.121 129.081 143.121 131.9C143.121 134.719 146.874 136.886 151.756 136.886L184.665 136.886C184.701 136.886 184.736 136.886 184.772 136.887C187.261 136.95 189.49 135.755 189.49 134.1C189.49 134.079 189.491 134.059 189.493 134.039Z" fill="white"/>
</g>
<rect y="0.5" width="145" height="145" rx="43.5" transform="matrix(0.866025 0.5 -0.866025 0.5 165.872 60.25)" fill="#E4E7F1"/>
<rect y="0.5" width="145" height="145" rx="43.5" transform="matrix(0.866025 0.5 -0.866025 0.5 165.872 60.25)" stroke="#142251"/>
<g clip-path="url(#clip1_0_1270)">
<path d="M189.493 134.039C189.601 132.601 187.531 131.314 184.665 131.314L156.606 131.314C155.88 131.314 155.418 131.581 155.418 132C155.418 132.419 155.88 132.686 156.606 132.686L179.815 132.686C181.168 132.686 182.265 133.319 182.265 134.1C182.265 134.881 181.168 135.514 179.815 135.514L156.606 135.514C153.175 135.514 150.519 133.981 150.519 132C150.519 130.019 153.175 128.486 156.606 128.486L184.665 128.486C190.095 128.486 194.596 130.982 194.389 134.13C194.361 137.251 190.05 139.832 184.616 139.714L151.756 139.714C144.168 139.714 138.222 136.281 138.222 131.9C138.222 127.519 144.168 124.086 151.756 124.086L179.815 124.086C181.168 124.086 182.265 124.719 182.265 125.5C182.265 126.281 181.168 126.914 179.815 126.914L151.756 126.914C146.874 126.914 143.121 129.081 143.121 131.9C143.121 134.719 146.874 136.886 151.756 136.886L184.665 136.886C184.701 136.886 184.736 136.886 184.772 136.887C187.261 136.95 189.49 135.755 189.49 134.1C189.49 134.079 189.491 134.059 189.493 134.039Z" fill="white"/>
</g>
<rect y="0.5" width="145" height="145" rx="43.5" transform="matrix(0.866025 0.5 -0.866025 0.5 165.872 30.25)" fill="white"/>
<rect y="0.5" width="145" height="145" rx="43.5" transform="matrix(0.866025 0.5 -0.866025 0.5 165.872 30.25)" stroke="#142251"/>
<g clip-path="url(#clip2_0_1270)">
<path d="M189.493 104.039C189.601 102.601 187.531 101.314 184.665 101.314L156.606 101.314C155.88 101.314 155.418 101.581 155.418 102C155.418 102.419 155.88 102.686 156.606 102.686L179.815 102.686C181.168 102.686 182.265 103.319 182.265 104.1C182.265 104.881 181.168 105.514 179.815 105.514L156.606 105.514C153.175 105.514 150.519 103.981 150.519 102C150.519 100.019 153.175 98.4857 156.606 98.4857L184.665 98.4857C190.095 98.4857 194.596 100.982 194.389 104.13C194.361 107.251 190.05 109.832 184.616 109.714L151.756 109.714C144.168 109.714 138.222 106.281 138.222 101.9C138.222 97.5189 144.168 94.0857 151.756 94.0857L179.815 94.0857C181.168 94.0857 182.265 94.7189 182.265 95.5C182.265 96.281 181.168 96.9142 179.815 96.9142L151.756 96.9142C146.874 96.9142 143.121 99.081 143.121 101.9C143.121 104.719 146.874 106.886 151.756 106.886L184.665 106.886C184.701 106.886 184.736 106.886 184.772 106.887C187.261 106.95 189.49 105.755 189.49 104.1C189.49 104.079 189.491 104.059 189.493 104.039Z" fill="white"/>
</g>
<rect width="146" height="146" rx="44" transform="matrix(0.866025 0.5 -0.866025 0.5 165.439 0)" fill="#142251"/>
<path d="M152.982 56.1924L152.113 73.2722L205.9 72.36" stroke="white" stroke-width="5" stroke-linecap="round"/>
<defs>
<filter id="filter0_i_0_1270" x="0" y="41" width="329" height="376" filterUnits="userSpaceOnUse" color-interpolation-filters="sRGB">
<feFlood flood-opacity="0" result="BackgroundImageFix"/>
<feBlend mode="normal" in="SourceGraphic" in2="BackgroundImageFix" result="shape"/>
<feColorMatrix in="SourceAlpha" type="matrix" values="0 0 0 0 0 0 0 0 0 0 0 0 0 0 0 0 0 0 127 0" result="hardAlpha"/>
<feOffset/>
<feGaussianBlur stdDeviation="42"/>
<feComposite in2="hardAlpha" operator="arithmetic" k2="-1" k3="1"/>
<feColorMatrix type="matrix" values="0 0 0 0 0.811765 0 0 0 0 0.823529 0 0 0 0 0.862745 0 0 0 1 0"/>
<feBlend mode="normal" in2="shape" result="effect1_innerShadow_0_1270"/>
</filter>
<filter id="filter1_i_0_1270" x="0" y="41" width="329" height="380" filterUnits="userSpaceOnUse" color-interpolation-filters="sRGB">
<feFlood flood-opacity="0" result="BackgroundImageFix"/>
<feBlend mode="normal" in="SourceGraphic" in2="BackgroundImageFix" result="shape"/>
<feColorMatrix in="SourceAlpha" type="matrix" values="0 0 0 0 0 0 0 0 0 0 0 0 0 0 0 0 0 0 127 0" result="hardAlpha"/>
<feOffset dy="4"/>
<feGaussianBlur stdDeviation="42"/>
<feComposite in2="hardAlpha" operator="arithmetic" k2="-1" k3="1"/>
<feColorMatrix type="matrix" values="0 0 0 0 1 0 0 0 0 1 0 0 0 0 1 0 0 0 1 0"/>
<feBlend mode="normal" in2="shape" result="effect1_innerShadow_0_1270"/>
</filter>
<filter id="filter2_i_0_1270" x="0" y="41" width="329" height="192" filterUnits="userSpaceOnUse" color-interpolation-filters="sRGB">
<feFlood flood-opacity="0" result="BackgroundImageFix"/>
<feBlend mode="normal" in="SourceGraphic" in2="BackgroundImageFix" result="shape"/>
<feColorMatrix in="SourceAlpha" type="matrix" values="0 0 0 0 0 0 0 0 0 0 0 0 0 0 0 0 0 0 127 0" result="hardAlpha"/>
<feOffset dy="4"/>
<feGaussianBlur stdDeviation="11"/>
<feComposite in2="hardAlpha" operator="arithmetic" k2="-1" k3="1"/>
<feColorMatrix type="matrix" values="0 0 0 0 1 0 0 0 0 1 0 0 0 0 1 0 0 0 0.25 0"/>
<feBlend mode="normal" in2="shape" result="effect1_innerShadow_0_1270"/>
</filter>
<clipPath id="clip0_0_1270">
<rect width="48" height="48" fill="white" transform="matrix(0.866025 0.5 -0.866025 0.5 165.439 109)"/>
</clipPath>
<clipPath id="clip1_0_1270">
<rect width="48" height="48" fill="white" transform="matrix(0.866025 0.5 -0.866025 0.5 165.439 109)"/>
</clipPath>
<clipPath id="clip2_0_1270">
<rect width="48" height="48" fill="white" transform="matrix(0.866025 0.5 -0.866025 0.5 165.439 79)"/>
</clipPath>
</defs>
</svg>
